<svg width="17" height="17" viewBox="0 0 17 17" fill="none" xmlns="http://www.w3.org/2000/svg">
<g clip-path="url(#clip0_1:138)">
<path d="M6.46089 12.7072C5.27734 12.7072 4.31445 13.67 4.31445 14.8536C4.31445 16.0371 5.27734 17 6.46089 17C7.64445 17 8.60733 16.0371 8.60733 14.8536C8.60733 13.67 7.64441 12.7072 6.46089 12.7072ZM6.46089 15.7122C5.98739 15.7122 5.60233 15.3271 5.60233 14.8536C5.60233 14.3801 5.98739 13.995 6.46089 13.995C6.93417 13.995 7.31946 14.3801 7.31946 14.8536C7.31946 15.3271 6.9344 15.7122 6.46089 15.7122Z" fill="white"/>
<path d="M12.8145 12.7072C11.631 12.7072 10.6681 13.67 10.6681 14.8536C10.6681 16.0371 11.631 17 12.8145 17C13.9981 17 14.961 16.0371 14.961 14.8536C14.961 13.67 13.9981 12.7072 12.8145 12.7072ZM12.8145 15.7122C12.341 15.7122 11.956 15.3271 11.956 14.8536C11.956 14.3801 12.341 13.995 12.8145 13.995C13.288 13.995 13.6731 14.3801 13.6731 14.8536C13.6731 15.3271 13.288 15.7122 12.8145 15.7122Z" fill="white"/>
<path d="M16.538 4.19268C16.4157 4.03898 16.2302 3.9495 16.034 3.9495H4.75886L4.17353 0.991282C4.12223 0.732199 3.9179 0.530657 3.65795 0.48301L1.08223 0.0107975C0.731739 -0.0538156 0.396887 0.17824 0.332705 0.5281C0.268524 0.87796 0.500115 1.21344 0.850008 1.27762L2.99515 1.67085L4.88487 11.2223C4.94453 11.5238 5.2092 11.7412 5.51656 11.7412H14.5316C14.8314 11.7412 15.0914 11.5346 15.159 11.242L16.6615 4.73831C16.7057 4.54706 16.6602 4.34615 16.538 4.19268ZM14.0194 10.4534H6.04541L5.01363 5.23758H15.2242L14.0194 10.4534Z" fill="white"/>
</g>
<defs>
<clipPath id="clip0_1:138">
<rect width="17" height="17" fill="white"/>
</clipPath>
</defs>
</svg>
